#!OML:ASF H:\ManfredETheater\Project 1\Capture day 1\Session 1\subject.ASF
:FULLY-SPECIFIED
:DEGREES
551
root 3.87232 18.079 -4.92912 -6.04487 13.4126 -2.40781
lowerback 13.5808 -3.51617 -8.35978
upperback 1.88377 -5.75043 2.20982
thorax -4.52947 -2.70122 8.02592
lowerneck -12.7404 -4.10013 -3.29417
upperneck 19.2682 -5.8952 4.35364
head 8.31193 -2.60317 1.3505
rclavicle 1.75303e-014 -1.23246e-014
rhumerus -48.6819 4.55309 -57.7019
rradius 64.9204
rwrist 2.00658
rhand -12.502 -8.72829
rfingers 7.12502
rthumb 13.5732 -38.2658
lclavicle 1.75303e-014 -1.23246e-014
lhumerus -22.8683 2.43253 67.5435
lradius 69.9754
lwrist -5.61672
lhand -23.0112 3.00589
lfingers 7.12502
lthumb 3.43224 32.958
rfemur -96.3157 -35.2897 27.2742
rtibia 94.8681
rfoot 16.1355 -1.40949
rtoes 7.86704
lfemur -3.91873 1.81229 -23.5512
ltibia 30.7109
lfoot -15.1893 -2.44828
ltoes 13.1142
552
root 3.90891 18.0995 -4.9168 -6.17933 13.0662 -2.79189
lowerback 13.5087 -3.35646 -8.05362
upperback 1.87391 -5.47936 2.38829
thorax -4.56378 -2.56931 8.00252
lowerneck -12.7468 -4.1677 -3.32705
upperneck 19.325 -5.97539 4.31298
head 8.3353 -2.64651 1.33292
rclavicle -9.03725e-014 5.08889e-014
rhumerus -48.3691 4.49968 -57.168
rradius 65.0874
rwrist 1.99125
rhand -12.4127 -8.78907
rfingers 7.12502
rthumb 13.6593 -38.3209
lclavicle -9.03725e-014 5.08889e-014
lhumerus -23.4649 2.91552 67.1018
lradius 70.0154
lwrist -5.53173
lhand -22.9297 3.02151
lfingers 7.12502
lthumb 3.51096 32.9723
rfemur -96.4925 -35.7443 26.8132
rtibia 94.6253
rfoot 15.8274 -1.98831
rtoes 7.83075
lfemur -3.56125 1.90498 -23.2244
ltibia 30.312
lfoot -15.0439 -2.28665
ltoes 13.1446
553
root 3.945 18.1197 -4.90418 -6.28893 12.7292 -3.16962
lowerback 13.4203 -3.19998 -7.74834
upperback 1.85383 -5.21249 2.56113
thorax -4.59864 -2.43908 7.97254
lowerneck -12.753 -4.23479 -3.35813
upperneck 19.3969 -6.05751 4.27916
head 8.36397 -2.68979 1.31702
rclavicle 2.06115e-014 1.96797e-014
rhumerus -48.0321 4.42806 -56.6068
rradius 65.2251
rwrist 2.00957
rhand -12.3225 -8.84124
rfingers 7.12502
rthumb 13.7462 -38.3672
lclavicle 2.06115e-014 1.96797e-014
lhumerus -24.1049 3.42296 66.6243
lradius 70.0518
lwrist -5.44057
lhand -22.8592 3.03452
lfingers 7.12502
lthumb 3.57911 32.9842
rfemur -96.5506 -36.2332 26.2567
rtibia 94.3994
rfoot 15.4709 -2.54398
rtoes 7.89316
lfemur -3.22726 2.02667 -22.8918
ltibia 29.9159
lfoot -14.9053 -2.17124
ltoes 13.1625
554
root 3.9806 18.1395 -4.89132 -6.3732 12.4068 -3.54159
lowerback 13.3168 -3.04786 -7.44241
upperback 1.8225 -4.95131 2.72827
thorax -4.63556 -2.3112 7.93557
lowerneck -12.7595 -4.30243 -3.38972
upperneck 19.4849 -6.14268 4.25275
head 8.39855 -2.7336 1.3032
rclavicle 6.88913e-015 -1.59028e-015
rhumerus -47.675 4.32976 -56.0167
rradius 65.3372
rwrist 2.05166
rhand -12.244 -8.88841
rfingers 7.12502
rthumb 13.8219 -38.4092
lclavicle 6.88913e-015 -1.59028e-015
lhumerus -24.7836 3.95343 66.1116
lradius 70.0762
lwrist -5.349
lhand -22.8066 3.04527
lfingers 7.12502
lthumb 3.62988 32.9941
rfemur -96.4934 -36.7603 25.6118
rtibia 94.1902
rfoot 15.0835 -3.08447
rtoes 8.07393
lfemur -2.92027 2.17074 -22.5541
ltibia 29.5269
lfoot -14.7752 -2.09856
ltoes 13.1642
555
root 4.01567 18.1588 -4.87833 -6.43257 12.1008 -3.9098
lowerback 13.2003 -2.89997 -7.13354
upperback 1.77888 -4.69551 2.89038
thorax -4.67678 -2.18545 7.89133
lowerneck -12.7657 -4.372 -3.42398
upperneck 19.589 -6.23233 4.23359
head 8.43906 -2.77881 1.2916
rclavicle -3.75517e-014 -1.94809e-014
rhumerus -47.3035 4.19789 -55.3966
rradius 65.4279
rwrist 2.10582
rhand -12.1927 -8.93401
rfingers 7.12502
rthumb 13.8713 -38.4514
lclavicle -3.75517e-014 -1.94809e-014
lhumerus -25.4969 4.50421 65.5647
lradius 70.0824
lwrist -5.26301
lhand -22.777 3.05538
lfingers 7.12502
lthumb 3.65848 33.0037
rfemur -96.3216 -37.3247 24.8853
rtibia 93.997
rfoot 14.6748 -3.62286
rtoes 8.37333
lfemur -2.64287 2.33018 -22.2106
ltibia 29.1487
lfoot -14.6543 -2.06235
ltoes 13.1473
556
root 4.05025 18.1777 -4.86533 -6.46789 11.8114 -4.27465
lowerback 13.0723 -2.75513 -6.82156
upperback 1.72272 -4.44365 3.04806
thorax -4.72359 -2.0611 7.84042
lowerneck -12.7706 -4.44476 -3.46312
upperneck 19.7074 -6.32766 4.2215
head 8.48486 -2.82619 1.28241
rclavicle 3.26069e-014 -1.48095e-014
rhumerus -46.923 4.0275 -54.7454
rradius 65.5018
rwrist 2.15951
rhand -12.1823 -8.98212
rfingers 7.12502
rthumb 13.8813 -38.4988
lclavicle 3.26069e-014 -1.48095e-014
lhumerus -26.2421 5.0715 64.9853
lradius 70.0666
lwrist -5.18831
lhand -22.7711 3.06576
lfingers 7.12502
lthumb 3.66413 33.014
rfemur -96.0337 -37.9222 24.0807
rtibia 93.8191
rfoot 14.2495 -4.17158
rtoes 8.77137
lfemur -2.39614 2.49796 -21.863
ltibia 28.7841
lfoot -14.5435 -2.05419
ltoes 13.1111
557
root 4.08434 18.1961 -4.85238 -6.48069 11.5362 -4.63705
lowerback 12.9342 -2.61143 -6.50616
upperback 1.65435 -4.19317 3.20212
thorax -4.77668 -1.93693 7.78336
lowerneck -12.7729 -4.52179 -3.50833
upperneck 19.8372 -6.42962 4.21552
head 8.53493 -2.8764 1.2754
rclavicle 4.68883e-014 -2.24627e-014
rhumerus -46.5389 3.81561 -54.0623
rradius 65.5635
rwrist 2.20227
rhand -12.223 -9.03737
rfingers 7.12502
rthumb 13.8421 -38.5568
lclavicle 4.68883e-014 -2.24627e-014
lhumerus -27.0163 5.65044 64.3754
lradius 70.0265
lwrist -5.12938
lhand -22.7885 3.07728
lfingers 7.12502
lthumb 3.64738 33.0258
rfemur -95.6264 -38.545 23.2
rtibia 93.6559
rfoot 13.8106 -4.73927
rtoes 9.23515
lfemur -2.1798 2.66724 -21.5121
ltibia 28.4348
lfoot -14.4431 -2.06382
ltoes 13.0544
558
root 4.11798 18.214 -4.83954 -6.4728 11.271 -4.99748
lowerback 12.7865 -2.4665 -6.18756
upperback 1.5748 -3.94098 3.35334
thorax -4.83552 -1.81152 7.72073
lowerneck -12.7714 -4.60378 -3.56077
upperneck 19.9749 -6.53869 4.21521
head 8.58783 -2.92987 1.27061
rclavicle -2.90754e-014 -4.96962e-015
rhumerus -46.1556 3.56163 -53.3467
rradius 65.617
rwrist 2.22617
rhand -12.3197 -9.10181
rfingers 7.12502
rthumb 13.7489 -38.6276
lclavicle -2.90754e-014 -4.96962e-015
lhumerus -27.8166 6.23666 63.7371
lradius 69.9613
lwrist -5.08992
lhand -22.8254 3.09067
lfingers 7.12502
lthumb 3.61175 33.0398
rfemur -95.0959 -39.1827 22.2436
rtibia 93.5069
rfoot 13.3627 -5.32857
rtoes 9.7288
lfemur -1.99239 2.83209 -21.1596
ltibia 28.1023
lfoot -14.3536 -2.08021
ltoes 12.9766
559
root 4.15127 18.2314 -4.82675 -6.44632 11.0113 -5.35587
lowerback 12.6288 -2.31807 -5.86632
upperback 1.48573 -3.68408 3.50217
thorax -4.89847 -1.68357 7.65283
lowerneck -12.7646 -4.69111 -3.62105
upperneck 20.1165 -6.65506 4.22013
head 8.64202 -2.98684 1.26799
rclavicle -1.09766e-014 2.2413e-014
rhumerus -45.7767 3.26681 -52.5987
rradius 65.6662
rwrist 2.22649
rhand -12.4709 -9.17693
rfingers 7.12502
rthumb 13.6032 -38.7125
lclavicle -1.09766e-014 2.2413e-014
lhumerus -28.6389 6.82674 63.0726
lradius 69.8699
lwrist -5.07171
lhand -22.8745 3.10403
lfingers 7.12502
lthumb 3.56426 33.054
rfemur -94.4384 -39.8246 21.2102
rtibia 93.3722
rfoot 12.9134 -5.93473
rtoes 10.2224
lfemur -1.8314 2.98752 -20.8075
ltibia 27.7876
lfoot -14.276 -2.09303
ltoes 12.8768
560
root 4.18425 18.2482 -4.81393 -6.40307 10.7513 -5.7127
lowerback 12.4596 -2.16397 -5.54214
upperback 1.389 -3.41951 3.64897
thorax -4.9631 -1.55184 7.57937
lowerneck -12.7512 -4.78381 -3.6893
upperneck 20.2574 -6.77858 4.2302
head 8.69579 -3.04733 1.26762
rclavicle 5.05938e-014 -8.54774e-015
rhumerus -45.4045 2.93411 -51.8185
rradius 65.714
rwrist 2.20186
rhand -12.6683 -9.26282
rfingers 7.12502
rthumb 13.4129 -38.811
lclavicle 5.05938e-014 -8.54774e-015
lhumerus -29.4784 7.41962 62.3837
lradius 69.7511
lwrist -5.07617
lhand -22.9283 3.11553
lfingers 7.12502
lthumb 3.51231 33.0663
rfemur -93.6524 -40.4585 20.1009
rtibia 93.2517
rfoot 12.4743 -6.54639
rtoes 10.6993
lfemur -1.69451 3.13007 -20.4568
ltibia 27.4917
lfoot -14.2116 -2.0929
ltoes 12.754
561
root 4.217 18.2644 -4.80099 -6.34468 10.4856 -6.06898
lowerback 12.2777 -2.00253 -5.21402
upperback 1.28629 -3.1449 3.79404
thorax -5.02713 -1.41538 7.49964
lowerneck -12.7307 -4.88169 -3.76541
upperneck 20.3953 -6.9089 4.24536
head 8.74821 -3.11121 1.26951
rclavicle 1.52195e-016 -1.1281e-014
rhumerus -45.0403 2.56818 -51.0072
rradius 65.7626
rwrist 2.15376
rhand -12.9 -9.35842
rfingers 7.12502
rthumb 13.1896 -38.9212
lclavicle 1.52195e-016 -1.1281e-014
lhumerus -30.33 8.01554 61.6714
lradius 69.6043
lwrist -5.10176
lhand -22.9787 3.12296
lfingers 7.12502
lthumb 3.46369 33.0746
rfemur -92.7385 -41.0725 18.9183
rtibia 93.146
rfoot 12.0594 -7.14703
rtoes 11.1578
lfemur -1.57956 3.25802 -20.1076
ltibia 27.2158
lfoot -14.1617 -2.07329
ltoes 12.6089
562
root 4.24958 18.28 -4.78784 -6.27214 10.2091 -6.4261
lowerback 12.0814 -1.83269 -4.88039
upperback 1.17902 -2.8587 3.93751
thorax -5.08822 -1.2736 7.41264
lowerneck -12.7032 -4.98418 -3.84898
upperneck 20.5279 -7.04527 4.26572
head 8.79855 -3.17812 1.27374
rclavicle 3.10073e-014 -2.23881e-014
rhumerus -44.6837 2.17495 -50.167
rradius 65.8121
rwrist 2.08611
rhand -13.152 -9.4616
rfingers 7.12502
rthumb 12.9466 -39.0399
lclavicle 3.10073e-014 -2.23881e-014
lhumerus -31.1897 8.61602 60.9357
lradius 69.4298
lwrist -5.14443
lhand -23.0195 3.12486
lfingers 7.12502
lthumb 3.42429 33.0771
rfemur -91.701 -41.6557 17.6685
rtibia 93.0557
rfoot 11.684 -7.71728
rtoes 11.6071
lfemur -1.48519 3.37116 -19.7593
ltibia 26.9607
lfoot -14.1275 -2.03049
ltoes 12.4423
